<?xml version="1.0" encoding="utf-8"?>
<svg version="1.1" xmlns="http://www.w3.org/2000/svg" width="1024" height="1024">
  <path d="M -7.248 442.567 C -103.866 466.654 -214.025 431.847 -272.117 337.425 C -365.647 185.405 -253.691 -7.384 -70.596 -9.594 C -69.601 -9.607 -68.605 -9.613 -67.61 -9.613 C 114.182 -9.613 228.684 179.593 139.757 332.705 C 136.153 338.913 133.102 346.152 128.586 351.196 C 126.802 347.269 64.342 294.446 55.519 294.718 C 53.972 294.766 55.528 292.512 55.631 292.321 C 108.872 193.897 41.263 72.434 -67.621 72.434 C -68.216 72.434 -68.81 72.438 -69.404 72.444 C -179.064 73.865 -246.114 197.795 -190.099 295.518 C -151.454 362.934 -74.776 382.996 -13.1 356.196 C -25.032 332.315 -53.66 308.227 -76.154 295.897 C -85.658 290.688 -95.9 286.93 -106 283 C -111.728 280.771 -118.02 280.418 -124 279 C -124.696 278.835 -126.031 279.023 -126.031 278.308 C -126.031 277.503 -124.76 277.265 -124 277 C -118.927 275.229 -112.929 274.644 -107.624 273.539 C -96.349 271.19 -84.493 269.746 -72.955 270.727 C -60.697 271.769 -48.275 271.75 -36.208 274.144 C -17.216 277.911 4.391 286.492 22.166 295.341 C 56.161 312.265 86.013 335.998 112.75 362.75 C 122.692 372.697 134.335 382.403 141.773 394.363 C 156.833 418.578 176.633 440.484 186.705 467.162 C 202.665 509.436 209.257 527.187 187.851 565.633 C 183.465 573.51 177.946 580.784 171.929 587.496 C 162.905 597.563 149.68 608.024 135.323 614.54 C 121.427 620.847 106.211 624.782 90.999 626 C 51.163 629.19 -0.167 605.282 -21.275 572.029 C -38.446 544.979 -37.217 531.002 -31.183 499.979 C -26.981 478.372 -21.509 474.249 -13.244 455.188 C -11.345 450.807 -8.1 447.184 -7.248 442.567 Z" transform="translate(553,207)" fill="#1d4a8a"/>
  <path d="M 458.12 478.398 C 462.383 477.919 468.159 477.72 472.735 477.736 C 474.275 477.742 475.727 477.757 477.267 477.739 C 488.032 477.62 498.349 478.369 509 480 C 509.828 480.126 510.655 480.252 511.508 480.381 C 525.558 482.666 538.959 486.245 552 492 C 553.569 492.648 555.139 493.292 556.711 493.934 C 569.317 499.126 581.223 505.138 593 512 C 593.629 512.365 594.257 512.73 594.905 513.105 C 603.648 518.219 611.85 524.007 620 530 C 620.665 530.485 621.33 530.971 622.015 531.471 C 630.405 537.606 638.386 543.909 646 551 C 647.35 552.171 648.704 553.338 650.063 554.5 C 654.596 558.446 658.789 562.716 663 567 C 663.908 567.908 664.815 568.815 665.75 569.75 C 667.283 571.283 668.814 572.816 670.344 574.352 C 672.005 576.008 673.676 577.655 675.359 579.289 C 681.397 585.189 686.754 591.396 692 598 C 692.923 599.123 693.847 600.244 694.773 601.363 C 731.118 645.579 758.576 669.178 753.782 727.663 C 753.223 732.216 750.366 743.39 750.039 744.621 C 747.758 752.265 744.582 759.234 740.938 766.313 C 740.302 767.559 736.295 772.266 735.721 772.964 C 733.617 775.519 727.946 779.374 726.49 780.468 C 716.667 787.854 706.861 792.452 695 795.813 C 694.313 796.007 693.627 796.202 692.919 796.403 C 665.388 803.64 634.25 802.962 609 789 C 604.729 786.277 600.836 783.303 597 780 C 595.801 778.969 595.801 778.969 594.578 777.918 C 580.417 764.758 570.726 745.088 570.699 725.738 C 570.68 712.154 581.235 699.332 585.938 688.563 C 600.208 652.746 602.868 611.768 588.25 575.75 C 581.025 559.874 570.722 545.866 559 533 C 541.055 513.304 521.088 500.211 496 491 C 494.781 490.552 481.935 485.886 473.593 483.871 C 472.822 483.683 461.12 480.398 458.12 478.398 Z" fill="#11afdb"/>
  <path d="M 678 625 C 702.217 648.436 722.661 681.253 723.344 715.723 C 723.483 732.124 722.512 746.22 711 759 C 705.054 764.715 698.081 767.949 689.813 768.438 C 684.397 767.816 680.46 765.189 677 761 C 674.278 752.834 677.404 745.847 680 738 C 680.865 735.337 681.715 732.669 682.563 730 C 682.956 728.783 683.349 727.566 683.754 726.313 C 684.178 724.877 684.592 723.44 685 722 C 685.266 721.084 685.532 720.167 685.807 719.223 C 688.26 709.897 688.473 701.005 688.375 691.438 C 688.371 690.643 688.366 689.848 688.362 689.03 C 688.284 676.8 687.651 664.974 685 653 C 684.802 652.081 684.604 651.161 684.399 650.214 C 682.508 639.787 682.508 639.787 678.926 629.92 C 678 628 678 628 678 625 Z" fill="#FAFCFD"/>
  <g transform="matrix(1.005499, 0, 0, 1.011082, -510.820892, 36.881073)" style="">
    <g/>
  </g>
</svg>